HIERARCHY
ROOT Hips
{
	OFFSET 0.00 0.00 0.00
	CHANNELS 6 Xposition Yposition Zposition Xrotation Yrotation Zrotation
	JOINT Spine
	{
		OFFSET 15.853116 -14.278538 1.988036
		CHANNELS 3 Xrotation Yrotation Zrotation
		JOINT Spine1
		{
			OFFSET 15.853116 -14.278538 1.988036
			CHANNELS 3 Xrotation Yrotation Zrotation
			JOINT Neck
			{
				OFFSET 0.000000 0.000000 0.000000
				CHANNELS 3 Xrotation Yrotation Zrotation
				JOINT Head
				{
					OFFSET 12.797840 -4.607782 21.330372
					CHANNELS 3 Xrotation Yrotation Zrotation
					End Site
					{
						OFFSET 0.000000 15.000000 0.000000
					}
				}
			}
			JOINT LeftShoulder
			{
				OFFSET 5.859499 5.099750 -3.329614
				CHANNELS 3 Xrotation Yrotation Zrotation
				JOINT LeftArm
				{
					OFFSET -7.828787 5.944028 0.546386
					CHANNELS 3 Xrotation Yrotation Zrotation
					JOINT LeftForeArm
					{
						OFFSET 1.144132 -10.045782 0.515046
						CHANNELS 3 Xrotation Yrotation Zrotation
						JOINT LeftHand
						{
							OFFSET -0.448680 -4.430101 -0.120796
							CHANNELS 3 Xrotation Yrotation Zrotation
							End Site
							{
								OFFSET 0.000000 -10.000000 0.000000
							}
						}
					}
				}
			}
			JOINT RightShoulder
			{
				OFFSET -5.859499 -5.099750 3.329614
				CHANNELS 3 Xrotation Yrotation Zrotation
				JOINT RightArm
				{
					OFFSET -17.340213 21.331459 3.814122
					CHANNELS 3 Xrotation Yrotation Zrotation
					JOINT RightForeArm
					{
						OFFSET -6.358792 5.162376 2.267635
						CHANNELS 3 Xrotation Yrotation Zrotation
						JOINT RightHand
						{
							OFFSET 2.353144 1.429424 3.265465
							CHANNELS 3 Xrotation Yrotation Zrotation
							End Site
							{
								OFFSET 0.000000 -10.000000 0.000000
							}
						}
					}
				}
			}
		}
	}
	JOINT LeftUpLeg
	{
		OFFSET 4.138972 3.724292 -6.004944
		CHANNELS 3 Xrotation Yrotation Zrotation
		JOINT LeftLeg
		{
			OFFSET -14.394718 31.088008 4.510166
			CHANNELS 3 Xrotation Yrotation Zrotation
			JOINT LeftFoot
			{
				OFFSET 1.339483 15.946364 -25.493962
				CHANNELS 3 Xrotation Yrotation Zrotation
				End Site
				{
					OFFSET 0.000000 -3.000000 12.000000
				}
			}
		}
	}
	JOINT RightUpLeg
	{
		OFFSET -4.138972 -3.724292 6.004944
		CHANNELS 3 Xrotation Yrotation Zrotation
		JOINT RightLeg
		{
			OFFSET -15.580355 12.808136 1.997269
			CHANNELS 3 Xrotation Yrotation Zrotation
			JOINT RightFoot
			{
				OFFSET -29.939108 12.629630 -19.687639
				CHANNELS 3 Xrotation Yrotation Zrotation
				End Site
				{
					OFFSET 0.000000 -3.000000 12.000000
				}
			}
		}
	}
}
MOTION
Frames: 14
Frame Time: 0.033333
0.267453 -0.111723 -0.051546 155.280991 64.854772 135.557477 155.280991 64.854772 135.557477 -104.440876 -149.207761 -113.370224 96.640672 42.569906 97.223326 0.000000 0.000000 0.000000 80.135390 -163.968187 -2.860525 -14.739472 164.984235 4.036676 -85.494652 169.094303 67.757358 0.000000 0.000000 0.000000 -74.284656 1.504578 0.423442 -5.432484 112.278017 13.068680 50.221286 55.682181 60.390459 0.000000 0.000000 0.000000 -95.054051 43.302803 -95.360956 -63.042907 -111.549663 -78.643501 0.000000 0.000000 0.000000 -88.081881 296.822327 89.029880 -45.785725 -136.390263 -44.395060 0.000000 0.000000 0.000000
0.251826 -0.102974 -0.061743 158.404914 68.536637 134.807070 158.404914 68.536637 134.807070 -95.404443 -159.121466 -103.929832 98.209275 39.675997 99.866148 0.000000 0.000000 0.000000 81.116972 -139.420595 -7.624365 -16.443897 161.545185 5.625296 -121.227594 173.165939 168.818272 0.000000 0.000000 0.000000 -75.218220 -26.680019 -7.553250 -3.701959 113.492790 8.466556 52.736422 53.054906 60.223732 0.000000 0.000000 0.000000 -55.714322 54.662626 -64.200855 -61.016471 -123.175611 -70.092291 0.000000 0.000000 0.000000 -66.510312 301.758933 74.942166 -47.803758 -133.162764 -49.626499 0.000000 0.000000 0.000000
0.241409 -0.097141 -0.068542 160.562195 70.986027 134.318478 160.562195 70.986027 134.318478 -87.645719 -168.539517 -78.536272 99.087170 37.931425 101.597514 0.000000 0.000000 0.000000 81.981006 -124.194948 -11.713531 -18.709065 158.063878 7.766513 -141.701401 177.155653 177.753088 0.000000 0.000000 0.000000 -75.884518 -42.665763 -13.049138 -2.151898 116.751817 4.263075 54.582933 51.025633 60.087316 0.000000 0.000000 0.000000 -31.239300 63.409898 -50.469774 -60.147015 -132.602485 -62.174664 0.000000 0.000000 0.000000 -48.364984 309.688264 53.583784 -49.224805 -131.206115 -52.941515 0.000000 0.000000 0.000000
0.233968 -0.092975 -0.073398 162.137284 72.727210 133.975081 162.137284 72.727210 133.975081 -81.137572 -177.048203 -18.299089 99.648004 36.766929 102.817540 0.000000 0.000000 0.000000 82.747082 -115.056973 -15.228045 -21.853847 154.565522 10.798557 -152.273318 -178.971305 -179.459270 0.000000 0.000000 0.000000 -76.383825 -51.608953 -16.998871 -0.757425 149.390427 0.448128 55.993461 49.414791 59.973634 0.000000 0.000000 0.000000 -19.035111 70.064525 -43.568756 -59.663953 -140.023794 -55.084989 0.000000 0.000000 0.000000 -35.386325 323.637138 27.608255 -50.278446 -129.896003 -55.216104 0.000000 0.000000 0.000000
0.222806 -0.086726 -0.080682 164.549249 75.318240 133.468562 164.549249 75.318240 133.468562 -69.922041 167.352499 31.546829 100.402208 35.136784 104.619476 0.000000 0.000000 0.000000 84.235231 -104.245211 -21.685288 -37.246081 146.481318 26.729580 -163.150622 -170.535291 -177.109627 0.000000 0.000000 0.000000 -77.172125 -61.638549 -22.870586 2.002424 -74.275025 -7.078611 58.264547 46.704950 59.770063 0.000000 0.000000 0.000000 -7.147744 80.284932 -36.221928 -59.086726 -151.737377 -41.917419 0.000000 0.000000 0.000000 -18.652324 33.745798 -12.708230 -51.921200 -128.057171 -58.475069 0.000000 0.000000 0.000000
0.211644 -0.080476 -0.087966 167.014519 77.875453 132.972132 167.014519 77.875453 132.972132 -57.468364 149.758817 42.426558 101.068046 33.634247 106.385441 0.000000 0.000000 0.000000 86.360167 -96.305821 -29.927320 -148.143077 131.607960 145.019260 -170.197344 -156.685198 -175.741457 0.000000 0.000000 0.000000 -78.011434 -68.699518 -28.574077 6.047920 -71.608032 -17.674287 60.737529 43.582758 59.512928 0.000000 0.000000 0.000000 0.139473 90.230484 -31.179344 -58.635123 -163.314570 -26.184544 0.000000 0.000000 0.000000 -6.237274 80.919886 -34.366625 -53.640936 -126.357889 -61.546283 0.000000 0.000000 0.000000
0.200482 -0.074227 -0.095250 169.525477 80.389555 132.485565 169.525477 80.389555 132.485565 -44.826708 133.121834 46.705212 101.660038 32.246742 108.113252 0.000000 0.000000 0.000000 89.629501 -90.436869 -40.300368 -177.309879 103.255243 168.719788 -174.999663 -134.134042 -174.846997 0.000000 0.000000 0.000000 -78.906469 -73.797102 -34.010178 12.459093 -70.777777 -32.361545 63.430043 39.969807 59.177899 0.000000 0.000000 0.000000 4.920036 99.367828 -27.555574 -58.272201 -173.897173 -9.811072 0.000000 0.000000 0.000000 2.568119 92.585203 -44.809799 -55.439871 -124.785525 -64.429381 0.000000 0.000000 0.000000
0.189321 -0.067977 -0.102534 172.073525 82.852222 132.008638 172.073525 82.852222 132.008638 -33.140425 119.607066 48.965681 102.189715 30.962999 109.801093 0.000000 0.000000 0.000000 95.251973 -86.007692 -52.792313 177.065020 65.764470 173.502479 -178.438095 -105.068216 -174.216813 0.000000 0.000000 0.000000 -79.862489 -77.594866 -39.107451 23.714051 -70.373050 -50.928632 66.359095 35.777103 58.723303 0.000000 0.000000 0.000000 8.254728 107.396863 -24.845609 -57.974196 176.992377 4.801533 0.000000 0.000000 0.000000 8.863179 97.304989 -50.577416 -57.319808 -123.328494 -67.127848 0.000000 0.000000 0.000000
0.189321 -0.067977 -0.102534 172.073525 82.852222 132.008638 172.073525 82.852222 132.008638 -33.140425 119.607066 48.965681 102.189715 30.962999 109.801093 0.000000 0.000000 0.000000 95.251973 -86.007692 -52.792313 177.065020 65.764470 173.502479 -178.438095 -105.068216 -174.216813 0.000000 0.000000 0.000000 -79.862489 -77.594866 -39.107451 23.714051 -70.373050 -50.928632 66.359095 35.777103 58.723303 0.000000 0.000000 0.000000 8.254728 107.396863 -24.845609 -57.974196 176.992377 4.801533 0.000000 0.000000 0.000000 8.863179 97.304989 -50.577416 -57.319808 -123.328494 -67.127848 0.000000 0.000000 0.000000
0.196309 -0.046177 -0.109488 164.688745 78.713476 126.090598 164.688745 78.713476 126.090598 -35.789169 123.552994 47.387842 96.840144 27.249222 103.111115 0.000000 0.000000 0.000000 88.517918 -91.754581 -40.185003 173.920291 69.536942 164.069266 179.114249 71.204520 177.399031 0.000000 0.000000 0.000000 -79.693728 -76.261601 -36.641387 16.061289 -63.620039 -30.134620 64.383843 40.911731 61.045021 0.000000 0.000000 0.000000 9.838392 106.365687 -30.563404 -60.102040 -173.274314 -11.590577 0.000000 0.000000 0.000000 13.398737 100.685103 -51.617802 -62.849961 -123.737036 -71.094019 0.000000 0.000000 0.000000
0.203297 -0.024376 -0.116443 154.763479 74.973649 119.662643 154.763479 74.973649 119.662643 -38.390790 127.784765 45.624067 91.426978 23.313940 93.308191 0.000000 0.000000 0.000000 84.273406 -100.404233 -28.641902 160.575678 71.431640 133.609784 175.088968 73.352997 163.967162 0.000000 0.000000 0.000000 -79.527276 -74.697127 -34.041095 9.057519 -9.828788 -1.581994 62.685186 44.885713 62.591886 0.000000 0.000000 0.000000 11.639524 105.614405 -36.392296 -62.531815 -163.095167 -30.310913 0.000000 0.000000 0.000000 17.772806 103.763856 -52.613272 -68.803780 -124.142550 -75.265993 0.000000 0.000000 0.000000
0.210285 -0.002576 -0.123397 141.700884 71.605245 112.835950 141.700884 71.605245 112.835950 -40.936127 132.283569 43.643446 86.045717 19.177017 78.758576 0.000000 0.000000 0.000000 81.382553 -113.989703 -18.806041 29.679722 72.568795 61.148878 167.368251 73.607537 142.698947 0.000000 0.000000 0.000000 -79.363088 -72.838666 -31.306902 2.803757 83.755653 24.112597 61.211276 48.024651 63.694849 0.000000 0.000000 0.000000 13.701806 105.042858 -42.213863 -65.321793 -153.085705 -47.850487 0.000000 0.000000 0.000000 21.946027 106.564283 -53.566110 -75.090423 -124.545029 -79.612845 0.000000 0.000000 0.000000
0.217273 0.019225 -0.130351 125.759815 68.575613 105.779238 125.759815 68.575613 105.779238 -43.417297 137.015168 41.409100 80.788567 14.868696 58.582564 0.000000 0.000000 0.000000 79.296615 -134.809823 -10.773013 10.989955 73.326485 32.958798 148.286068 73.706328 115.314976 0.000000 0.000000 0.000000 -79.201120 -70.600044 -28.441603 -2.689193 93.124657 40.709186 59.921893 50.552632 64.520450 0.000000 0.000000 0.000000 16.079764 104.593521 -47.910559 -68.541827 -143.804283 -61.757852 0.000000 0.000000 0.000000 25.890950 109.110799 -54.478503 -81.577751 -124.944470 -84.093093 0.000000 0.000000 0.000000
0.231825 0.037758 -0.136721 104.944659 62.225881 98.001856 104.944659 62.225881 98.001856 -44.659288 138.543180 41.118959 76.153212 7.073962 26.722955 0.000000 0.000000 0.000000 74.894721 -165.510436 -3.990118 2.827282 84.095692 25.526439 100.486869 70.987708 93.649391 0.000000 0.000000 0.000000 -78.286894 -70.420063 -30.237574 0.957294 88.742776 37.285048 55.218612 47.803101 57.801431 0.000000 0.000000 0.000000 18.638649 102.764595 -56.112131 -73.537831 -139.839781 -70.701559 0.000000 0.000000 0.000000 22.850854 104.970269 -57.603813 -88.784679 -125.409091 -89.135962 0.000000 0.000000 0.000000
